<!--?xml version="1.0" standalone="no"?--><svg version="1.0" xmlns="http://www.w3.org/2000/svg" width="300.000000pt" height="300.000000pt" viewBox="0 0 300.000000 300.000000" preserveAspectRatio="xMidYMid meet">
<metadata>
  <rdf:rdf xmlns:rdf="http://www.w3.org/1999/02/22-rdf-syntax-ns#" xmlns:rdfs="http://www.w3.org/2000/01/rdf-schema#" xmlns:dc="http://purl.org/dc/elements/1.1/">
    <rdf:description dc:title="Many pages book" dc:publisher="Hiox" dc:date="2015-03-19" dc:format="image/svg+xml" dc:language="en">
      <dc:creator>
        <rdf:bag>
          <rdf:li>svgimages.com</rdf:li>
        </rdf:bag>
      </dc:creator>
    </rdf:description>
  </rdf:rdf>
</metadata>
<g transform="translate(0.000000,300.000000) scale(0.100000,-0.100000)" fill="#0A0A0A" stroke="none">
<path d="M1320 2141 c-74 -32 -187 -79 -250 -105 -63 -26 -124 -51 -135 -56
-11 -5 -92 -39 -180 -75 -167 -69 -266 -110 -300 -125 -11 -5 -49 -21 -85 -35
-36 -14 -74 -30 -85 -35 -11 -5 -51 -22 -89 -38 -38 -17 -73 -37 -78 -45 -16
-29 -21 -164 -9 -246 21 -144 80 -299 116 -306 98 -20 187 -37 280 -54 61 -11
148 -28 195 -37 47 -8 119 -22 160 -29 41 -8 136 -26 210 -40 74 -14 182 -34
240 -45 99 -18 185 -34 325 -61 l60 -11 117 68 c65 38 130 76 145 84 16 9 71
41 123 72 52 30 230 133 395 228 165 95 328 189 362 209 l63 36 0 54 c0 41 -3
51 -12 43 -7 -5 -58 -36 -113 -68 -627 -362 -877 -507 -970 -561 -90 -52 -115
-63 -140 -58 -16 3 -81 15 -143 25 -174 30 -326 57 -452 79 -63 11 -167 29
-230 40 -63 11 -167 30 -230 41 -63 11 -164 29 -224 39 -120 21 -132 29 -161
101 -13 34 -19 83 -22 195 -2 83 0 156 5 163 7 10 33 8 128 -7 136 -22 305
-49 549 -86 94 -14 195 -30 227 -36 54 -9 178 -28 452 -69 l129 -20 101 51
c56 29 137 71 181 94 89 47 236 124 460 240 83 43 186 97 230 120 44 23 114
59 155 80 l75 38 -120 18 c-66 10 -169 25 -230 34 -60 8 -137 19 -170 25 -57
10 -163 25 -380 56 -55 7 -176 25 -270 39 -273 42 -250 43 -405 -24z" id="node1" class="node"></path>
<path d="M2845 1911 c-6 -5 -50 -30 -100 -56 -155 -82 -390 -207 -464 -247
-30 -17 -111 -59 -180 -96 -69 -36 -157 -83 -194 -104 -38 -21 -71 -38 -73
-38 -3 0 -40 -20 -83 -45 l-79 -44 -89 15 c-159 27 -326 54 -423 69 -52 9
-117 20 -145 25 -60 12 -719 120 -733 120 -5 0 -12 -11 -14 -25 -5 -22 -1 -25
46 -34 52 -10 182 -31 336 -56 104 -16 246 -40 360 -60 228 -40 638 -105 658
-105 13 0 63 21 110 46 48 26 116 63 152 82 36 19 88 47 115 62 28 15 100 53
160 85 109 58 214 113 310 165 28 15 104 55 170 90 210 110 206 107 193 135
-12 27 -19 30 -33 16z" id="node2" class="node"></path>
<path d="M2795 1776 c-33 -17 -103 -55 -155 -83 -52 -28 -120 -64 -150 -80
-58 -32 -302 -162 -435 -233 -44 -23 -152 -81 -240 -128 l-159 -85 -71 12
c-38 7 -108 19 -155 26 -82 13 -182 30 -360 60 -47 7 -140 23 -208 34 -67 11
-175 30 -240 41 -64 11 -160 27 -213 35 -53 8 -103 17 -111 20 -13 5 -27 -18
-28 -46 0 -3 28 -11 63 -17 79 -15 722 -122 802 -133 33 -5 96 -16 140 -24 44
-8 150 -26 236 -40 l156 -25 204 108 c112 60 233 125 269 144 36 20 100 54
143 77 42 22 112 60 155 82 42 23 104 56 137 74 33 18 101 54 150 80 117 62
155 85 155 94 0 4 -6 15 -12 23 -12 15 -19 14 -73 -16z" id="node3" class="node"></path>
<path d="M2825 1671 c-25 -15 -262 -144 -500 -271 -33 -18 -136 -74 -230 -125
-93 -51 -230 -125 -304 -164 l-135 -72 -60 10 c-34 6 -113 20 -176 31 -63 11
-180 32 -260 46 -80 14 -194 34 -255 45 -60 11 -148 26 -195 34 -97 15 -349
60 -397 71 -30 6 -33 5 -33 -19 0 -14 4 -28 9 -31 5 -3 76 -17 158 -31 139
-24 268 -46 458 -80 44 -8 132 -23 195 -34 63 -11 180 -32 260 -46 318 -57
301 -55 340 -36 19 9 96 50 170 91 74 40 169 91 210 113 41 22 89 47 105 57
17 10 62 34 100 55 39 21 156 84 260 140 105 56 222 119 260 140 88 47 89 48
76 74 -14 25 -18 26 -56 2z" id="node4" class="node"></path>
</g>
<g transform="translate(0.000000,300.000000) scale(0.100000,-0.100000)" fill="#A1A1A1" stroke="none">

</g>
</svg>